<svg width="151" height="26" viewBox="0 0 151 26" fill="none" xmlns="http://www.w3.org/2000/svg">
<g clip-path="url(#clip0_99_1153)">
<path d="M63.8512 6.26221e-06H45.1185C44.4162 6.26221e-06 44.0771 0.371801 44.0771 1.10257V25.0256C44.0771 25.5641 44.3435 25.8333 44.8763 25.8333H48.6423C49.1508 25.8333 49.4051 25.5641 49.4051 25.0256V17.9359H63.8391C66.5152 17.9359 68.4285 17.2949 69.5909 16.0128C70.7534 14.7308 71.3346 12.8333 71.3346 10.3205V7.58975C71.3346 5.07693 70.7534 3.17949 69.5909 1.89744C68.4285 0.615391 66.5152 -0.0256348 63.8391 -0.0256348L63.8512 6.26221e-06ZM49.4172 13.0769V5.53847C49.4172 5.2436 49.5626 5.08975 49.8653 5.08975H62.7735C63.9602 5.08975 64.7957 5.35898 65.2801 5.89744C65.7645 6.4359 66.0067 7.26924 66.0067 8.3718V9.76924C66.0067 10.8718 65.7645 11.7051 65.2801 12.2436C64.7957 12.7821 63.9602 13.0513 62.7735 13.0513" fill="white"/>
<path d="M150.794 24.8846L139.605 12.4359L150.31 0.948721C150.467 0.782054 150.54 0.576926 150.504 0.333336C150.467 0.102567 150.286 -0.0128174 149.959 -0.0128174H145.43C145.151 -0.0128174 144.933 0.0256442 144.764 0.115388C144.607 0.205131 144.449 0.333336 144.316 0.500003L136.263 9.06411L128.659 0.500003C128.514 0.333336 128.368 0.192311 128.211 0.115388C128.053 0.0256442 127.823 -0.0128174 127.545 -0.0128174H122.762C122.435 -0.0128174 122.265 0.102567 122.241 0.333336C122.217 0.564106 122.277 0.769234 122.411 0.948721L132.764 12.2436L121.284 24.8718C121.127 25.0385 121.054 25.2436 121.091 25.4872C121.127 25.718 121.297 25.8333 121.599 25.8333H126.128C126.431 25.8333 126.661 25.7949 126.806 25.718C126.952 25.641 127.109 25.5128 127.278 25.3077L135.924 15.7436L144.534 25.3077C144.679 25.5 144.825 25.641 144.982 25.718C145.139 25.7949 145.369 25.8333 145.648 25.8333H150.431C150.758 25.8333 150.94 25.718 150.976 25.4872C151.012 25.2564 150.952 25.0513 150.782 24.8718L150.794 24.8846Z" fill="white"/>
<path d="M107.068 0H91.7259C89.958 0 88.4565 0.179487 87.2214 0.538462C85.9862 0.897436 84.9812 1.46154 84.2062 2.23077C83.4555 2.98718 82.8984 3.94872 82.5352 5.12821H107.068C107.601 5.12821 107.867 4.85897 107.867 4.32051V0.807692C107.867 0.269231 107.601 0 107.068 0Z" fill="white"/>
<path d="M107.068 20.7179H91.823C90.9148 20.7179 90.164 20.641 89.5707 20.4744C88.9774 20.3205 88.5051 20.0385 88.1418 19.6667C87.7786 19.282 87.5364 18.7692 87.3911 18.1154C87.2458 17.4615 87.1852 16.6538 87.1852 15.6923V15.0641H106.887C107.395 15.0641 107.65 14.7949 107.65 14.2564V11.3333C107.65 10.7949 107.395 10.5256 106.887 10.5256H81.9541V16.1026C81.9541 17.8718 82.1357 19.3846 82.499 20.6282C82.8623 21.8718 83.4314 22.8846 84.2064 23.6538C84.9814 24.4231 85.9864 24.9872 87.2215 25.3333C88.4567 25.6795 89.9582 25.8461 91.7261 25.8461H107.068C107.601 25.8461 107.867 25.5769 107.867 25.0385V21.5256C107.867 20.9872 107.601 20.7179 107.068 20.7179Z" fill="white"/>
<path d="M17.2801 0.153839H15.2215C14.4708 0.153839 13.829 0.346147 13.272 0.730762C12.715 1.11538 12.1458 1.85897 11.5646 2.96153L0.12155 25.141C0.000459089 25.3846 -0.023759 25.5897 0.0367863 25.7564C0.0973316 25.9102 0.278968 26 0.581694 26H5.11048C5.4011 26 5.63117 25.8974 5.78859 25.7051L18.7574 0.384608C18.3094 0.230762 17.825 0.153839 17.2801 0.153839Z" fill="white"/>
<path d="M22.3532 5L19.4955 10.5769L22.5106 16.4615H16.4803L14.2886 20.7436H24.7145L27.1847 25.5128C27.3179 25.8333 27.5964 25.9872 27.9839 25.9872H32.4158C32.6943 25.9872 32.8639 25.9103 32.9244 25.7436C32.985 25.5897 32.9486 25.3846 32.8397 25.1282L22.3532 5Z" fill="white"/>
</g>
<defs>
<clipPath id="clip0_99_1153">
<rect width="151" height="26" fill="white"/>
</clipPath>
</defs>
</svg>
